# xmcd
#
# Track frame offsets: 
#        300
#        23902
#        51292
#        75730
#        106172
#        123677
#        141942
#        167097
#        184822
#
# Disc length: 2957 seconds
#
# Revision: 10
# Processed by: cddbd v1.5.2PL0 Copyright (c) Steve Scherf et al.
# Submitted via: ExactAudioCopy v0.99pb5
#
DISCID=7b0b8909
DTITLE=????? - ???
DYEAR=1986
DGENRE=JPop
TTITLE0=??
TTITLE1=??
TTITLE2=?????
TTITLE3=????????????
TTITLE4=BGM
TTITLE5=??
TTITLE6=???
TTITLE7=???
TTITLE8=??
EXTD=
EXTT0=
EXTT1=
EXTT2=
EXTT3=
EXTT4=
EXTT5=
EXTT6=
EXTT7=
EXTT8=
PLAYORDER=
